<?xml version="1.0" encoding="UTF-8"?>
<svg id="Layer_2" data-name="Layer 2" xmlns="http://www.w3.org/2000/svg" viewBox="0 0 1983.75 1712.43">
  <defs>
    <style>
      .cls-1 {
        fill: #2fb1cc;
      }
    </style>
  </defs>
  <g id="Layer_1-2" data-name="Layer 1">
    <path class="cls-1" d="M1890.75,1383.85v-171.66c54.13-28.77,91.53-85.23,92.96-150.2,2.19-99.25-79.01-180.45-178.26-178.26-33.26.73-64.3,10.9-90.53,27.9l-178.8-100.5,343.04-192.81c42.22-23.73,42.22-84.51,0-108.25L985.84,7.96c-18.89-10.62-41.95-10.62-60.84,0L31.67,510.07c-42.22,23.73-42.22,84.51,0,108.25l343.04,192.81L31.67,1003.95c-42.22,23.73-42.22,84.51,0,108.25l340.32,191.28c0,.23-.02.47-.02.7-2.19,99.25,79.01,180.45,178.26,178.26,63.35-1.4,118.62-36.99,148-88.95,13.69-24.21,21.77-51.96,22.42-81.47,2.19-99.25-79.01-180.45-178.26-178.26-33.26.73-64.3,10.9-90.53,27.9l-145.97-82.05c-16.81-9.45-16.81-33.64,0-43.09l619.12-347.99c18.89-10.62,41.95-10.62,60.84,0l619.12,347.99c16.81,9.45,16.81,33.64,0,43.09l-555.02,311.96c-28.27-18.3-62.14-28.66-98.43-27.86-63.35,1.4-118.62,36.99-148,88.95-13.69,24.2-21.77,51.96-22.42,81.47-2.19,99.25,79.01,180.45,178.26,178.26,92.87-2.05,168.37-77.55,170.42-170.42.06-2.86.05-5.71-.02-8.54l585.13-328.88c4.26,2.76,8.64,5.34,13.14,7.72v171.66c-54.14,28.77-91.53,85.23-92.96,150.21-2.19,99.25,79.01,180.45,178.26,178.26,92.87-2.05,168.37-77.55,170.42-170.42,1.51-68.42-36.61-128.26-92.96-158.12ZM985.84,501.84c-18.89-10.62-41.95-10.62-60.84,0l-384.2,215.95-234.92-132.04c-16.81-9.45-16.81-33.64,0-43.09L924.99,194.67c18.89-10.62,41.95-10.62,60.84,0l619.12,347.99c16.81,9.45,16.81,33.64,0,43.09l-234.92,132.04-384.2-215.95Z"/>
  </g>
</svg>